<?xml version="1.0" encoding="UTF-8"?>
<svg id="Layer_1" xmlns="http://www.w3.org/2000/svg" version="1.1" xmlns:xlink="http://www.w3.org/1999/xlink" viewBox="0 0 628.63 633.31">
  <!-- Generator: Adobe Illustrator 30.1.0, SVG Export Plug-In . SVG Version: 2.1.1 Build 136)  -->
  <defs>
    <style>
      .st0 {
        fill: #003944;
      }

      .st1 {
        fill: none;
      }

      .st2 {
        fill: #758173;
      }

      .st3 {
        fill: #adb8bf;
      }

      .st4 {
        fill: #fedfb3;
      }

      .st5 {
        fill: #cdb89b;
      }

      .st6 {
        fill: #9faeaf;
      }

      .st7 {
        clip-path: url(#clippath);
      }

      .st8 {
        fill: #f9bc43;
      }
    </style>
    <clipPath id="clippath">
      <path class="st1" d="M281.66,451.34c-6.17,0-12.71-2.33-18.57-6.84-28.9-22.24-43.56-63.64-43.56-123.03,0-18.04-4.31-32.02-8.87-46.81-4.09-13.26-8.32-26.96-9.98-44.58-2.18-23.06,5.64-42.7,20.91-52.54,12.23-7.89,27.96-8.87,44.28-2.78.04.01,1.04.39,1.09.41,30.97,11.45,66.69,11.46,97.85-.06,17.25-6.45,32.98-5.46,45.22,2.42,15.27,9.84,23.1,29.48,20.91,52.54-1.65,17.62-5.88,31.32-9.98,44.58-4.56,14.79-8.87,28.76-8.87,46.81,0,59.39-14.66,100.79-43.56,123.03-9.53,7.33-20.83,8.9-29.45,4.08-8.85-4.93-12.36-15.31-8.96-26.46,5.97-19.52,11.03-55.57-.73-69.21-3.2-3.72-7.52-5.45-13.58-5.45s-10.37,1.73-13.57,5.44c-11.77,13.64-6.7,49.7-.73,69.22,3.4,11.15-.11,21.53-8.96,26.46-3.32,1.85-7.03,2.76-10.89,2.76Z"/>
    </clipPath>
  </defs>
  <g class="st7">
    <g>
      <rect class="st4" x="143.74" y="129.44" width="354.76" height="354.76"/>
      <path class="st3" d="M458.08,192.16c-11.38,5.08-21.61,2.51-33.09.22-.42-.08-.85-.17-1.27-.25-12.61-2.45-25.24-1.98-37.8.48-29.61,5.81-53.14,24.17-81.39,32.71-13.95,4.23-29.59,7.17-43.97,9.78-20.58,3.74-43.2,3.67-63.18,10.75-2.7.96-5.36,2.05-7.95,3.29-3.23,1.55-6.32,3.32-9.26,5.29-11.93,7.96-21.36,19.18-27.15,32.46-2.96,6.79-5.55,14.73-9.28,21.75v17.61c.36-.5.7-1.02,1.05-1.54,9.29-14.13,17.47-24.54,33.25-31.83,11.27-5.2,21.65-9.71,31.4-16.41,3.02-2.07,5.98-4.36,8.88-6.94,2.09-1.86,4.16-3.51,6.24-4.96,9.07-6.37,18.27-9.2,30.23-11.46,17.5-3.31,33.12-9.4,49.56-16.02,30.83-12.43,70.82-20.81,103.93-15.43,16.64,2.7,31.57,7.29,48.42,2.69,15.05-4.11,28.53-12.93,39.27-24.14.83-.87,1.68-1.73,2.54-2.55v-31.73c-14.99,6.11-25.64,19.63-40.42,26.23Z"/>
      <path class="st2" d="M478.39,129.44c-11.82,7.66-19.46,21.88-29.55,32.37-14.75,15.35-38.83,11.29-58.09,12.32-13.19.7-26.06,4.92-37.17,12.47-10.62,7.21-18.31,18.22-29.59,24.51-14.36,8.01-31.76,6.47-46.91,12.21-8.21,3.11-16.06,7.2-23.41,12-.21.13-.71.54-1.4,1.1,2.79-.39,5.56-.81,8.28-1.31,14.37-2.61,30.01-5.55,43.97-9.78,28.24-8.55,51.78-26.91,81.39-32.71,12.56-2.46,25.19-2.93,37.8-.48.43.08.85.17,1.27.25,11.49,2.28,21.72,4.85,33.09-.22,14.78-6.6,25.43-20.12,40.42-26.23v12.93h0v-49.42h-20.11Z"/>
      <path class="st5" d="M498.5,326.26v37.67c-1.61.54-3.23,1.02-4.88,1.44-20.17,5.21-41.58,3.77-60.36-5.21-.54-.25-1.08-.52-1.62-.79,3.99-3.68,8.56-6.1,13.42-7.86,5.07-1.84,10.45-2.99,15.83-4.17,15.97-3.49,28.12-7.64,37.62-21.08Z"/>
      <path class="st0" d="M495.25,248.97c-.05.15-.11.31-.19.47-2.23,4.87-16.05,13.3-22.25,16.13-.54.25-1.03.46-1.44.61-2.12.8-4.27,1.54-6.43,2.23-13.06,4.14-26.84,6.2-40.53,5.7-11.43-.42-22.64-2.9-33.99-4.18-2.05-.23-4.11-.43-6.17-.56-21.52-1.41-48.12,3.51-64.78,18.21-3.77,3.32-7.1,7.07-10.21,10.99,0,0,0,0,0,.01-4.2,5.3-8,10.94-11.96,16.4-12.4,17.09-23.74,24.96-43.77,31.02-14.3,4.33-28.33,9.93-40.65,18.52-11.35,7.92-20.74,18.22-31.85,26.44-9.33,6.89-19.72,12.31-30.7,16-2.17.73-4.36,1.4-6.58,1.99v-55.49c3.77-.49,7.5-1.23,11.17-2.32,24.63-7.33,28.44-30.9,42.62-48.53,5.01-6.24,10.61-12.67,16.66-18.39,3.37-3.19,6.88-6.17,10.52-8.77,13.11-9.37,30.08-12.36,45.08-17.44,13.54-4.58,26.79-10,40.5-14.07,27.31-8.12,52.97-17.95,81.41-13.22,2.02.33,4.06.74,6.12,1.24,19.63,4.69,36.39,18.35,55.96,21.94,4.41.8,8.51.8,12.61.13,3.36-.55,24.27-11.9,28.59-6.88.43.5.49,1.11.27,1.83Z"/>
      <path class="st5" d="M495.96,200.21c-10.74,11.21-24.21,20.03-39.27,24.14-16.85,4.6-31.79.01-48.42-2.69-33.11-5.39-73.1,2.99-103.93,15.43-16.44,6.63-32.06,12.72-49.56,16.02-11.96,2.26-21.16,5.09-30.23,11.46-2.08,1.46-4.14,3.1-6.24,4.96-2.9,2.58-5.86,4.87-8.88,6.94-9.75,6.7-20.13,11.22-31.4,16.41-15.77,7.28-23.96,17.7-33.25,31.83-.35.53-.7,1.04-1.05,1.54v27.19c3.77-.48,7.5-1.23,11.17-2.32,24.63-7.33,28.44-30.9,42.62-48.53,5.01-6.24,10.61-12.67,16.66-18.39,3.37-3.19,6.88-6.17,10.52-8.77,13.11-9.37,30.08-12.36,45.08-17.44,13.54-4.58,26.79-10,40.5-14.07,27.31-8.12,52.97-17.95,81.41-13.22,2.02.33,4.06.74,6.12,1.24,19.63,4.69,36.39,18.35,55.96,21.94,4.41.8,8.51.8,12.61.13,3.36-.55,24.27-11.9,28.59-6.88.43.5.49,1.11.27,1.83,1.02-1.11,1.96-2.26,2.83-3.49.14-.2.28-.39.42-.59v-47.23c-.86.83-1.7,1.68-2.54,2.55Z"/>
      <path class="st0" d="M264.22,484.2c11.92-4.77,23.62-10.24,36.37-11.81,13.6-1.68,27.44-.57,41.1-.96,19.49-.56,38.05-1.56,53.33-12.42,2.93-2.08,5.75-4.53,8.42-7.4,5.89-6.34,11.86-12.55,18.33-18.1,6.88-5.91,14.31-11.09,22.83-14.9,5.45-2.44,11.11-3.76,16.87-4.61,10.25-1.51,20.81-1.52,31.01-3.62,2.02-.42,4.03-.89,6.01-1.43v-55.49c-9.22,1.19-18.68.83-28.11.09-8.54-.67-17.05-1.64-25.34-2.03-.44-.02-.89-.04-1.32-.05-12.06-.48-25.48,1.08-36.52,6.36-31.23,14.95-34.45,58.64-67.41,72.02-8.67,3.52-17.86,4.5-27.06,5.33-9.47.86-18.97,1.56-27.98,4.72-1.89.66-3.75,1.43-5.59,2.32-17.77,8.7-31.49,24.2-50.38,30.91-7.96,2.83-17.79,5.49-26.2,9.95-.02,0-.05.02-.07.03-.67.36-1.33.72-1.98,1.1h63.69Z"/>
      <path class="st5" d="M403.45,451.6c-2.67,2.87-5.49,5.32-8.42,7.4-15.28,10.86-33.84,11.87-53.33,12.42-13.66.39-27.5-.71-41.1.96-12.76,1.57-24.45,7.04-36.37,11.81h111.31c1.37-.54,2.71-1.15,4.02-1.8,9.66-4.81,17.76-12.35,24.69-21.05,6.69-8.4,12.28-17.87,17.14-27.01.11-.21.25-.49.4-.83-6.47,5.55-12.44,11.76-18.33,18.1Z"/>
      <path class="st6" d="M482.21,426.96c-10.99,5.75-23.49,9.08-35.21,12.8-15.9,5.04-29.09,13.31-42.75,21.58h0c-6.93,8.7-15.03,16.25-24.69,21.05-1.31.66-2.65,1.26-4.02,1.8h53.5c4.47-2.93,9.17-5.52,14.34-7.47,10.27-3.88,20.2-12.09,29.13-18.35,7.09-4.98,14.2-9.9,20.84-15.48,1.76-1.47,3.48-2.99,5.16-4.58v-23.4c-4.74,5.04-10.29,8.89-16.29,12.03Z"/>
      <path class="st3" d="M480.85,325.46c-13.16,4.53-26.69-1.1-39.46-4.22-45.63-11.14-83.58,18.74-109,53.37-7.17,9.77-12.58,23.51-20.95,32.07-13.55,13.84-33.06,15.4-50.65,20.14-2.6.7-5.16,1.51-7.65,2.45-2.42.91-4.79,1.94-7.1,3.11-15.02,7.52-27.67,20.21-36.75,36.45-2.47,4.42-4.68,9.09-6.6,14,0,.02-.01.04-.02.05-.03.06-.05.13-.07.19,8.41-4.45,18.23-7.12,26.2-9.95,18.88-6.7,32.6-22.2,50.38-30.91,1.84-.9,3.7-1.67,5.59-2.32,9.02-3.16,18.51-3.87,27.98-4.72,9.21-.83,18.39-1.81,27.06-5.33,32.96-13.38,36.18-57.07,67.41-72.02,11.04-5.29,24.46-6.84,36.52-6.36.44.02.88.03,1.32.05,8.28.4,16.8,1.37,25.34,2.03,2.73-.69,5.42-1.57,8.05-2.73,7.04-3.1,13.88-7.22,20.06-12.14v-30.03c-3.97,7.48-9.24,13.91-17.65,16.82Z"/>
      <path class="st3" d="M480.85,325.46c-13.16,4.53-26.69-1.1-39.46-4.22-45.63-11.14-83.58,18.74-109,53.37-7.17,9.77-12.58,23.51-20.95,32.07-13.55,13.84-33.06,15.4-50.65,20.14-2.6.7-5.16,1.51-7.65,2.45-2.42.91-4.79,1.94-7.1,3.11-15.02,7.52-27.67,20.21-36.75,36.45-2.47,4.42-4.68,9.09-6.6,14,0,.02-.01.04-.02.05-.03.06-.05.13-.07.19,8.41-4.45,18.23-7.12,26.2-9.95,18.88-6.7,32.6-22.2,50.38-30.91,1.84-.9,3.7-1.67,5.59-2.32,9.02-3.16,18.51-3.87,27.98-4.72,9.21-.83,18.39-1.81,27.06-5.33,32.96-13.38,36.18-57.07,67.41-72.02,11.04-5.29,24.46-6.84,36.52-6.36.44.02.88.03,1.32.05,8.28.4,16.8,1.37,25.34,2.03,2.73-.69,5.42-1.57,8.05-2.73,7.04-3.1,13.88-7.22,20.06-12.14v-30.03c-3.97,7.48-9.24,13.91-17.65,16.82Z"/>
      <path class="st0" d="M264.22,129.44c-2.44.98-4.88,1.92-7.35,2.8-6.14,2.19-12.41,3.96-18.98,4.69-9.37,1.05-18.76,1.99-28.08,3.42-8.86,1.37-15.33,4.98-24.09,5.64,2.65-7.52,8.18-12.68,14.81-16.56h63.69Z"/>
      <path class="st2" d="M157.81,162.5c7.75-6.07,16.99-9.5,25.48-14.89.97-.62,1.92-1.26,2.85-1.93-.14.01-.27.04-.41.05,2.65-7.52,8.18-12.68,14.81-16.56h-56.79v36.49c1.03-.42,2.08-.8,3.16-1.15,3.58-1.15,7.23-1.77,10.91-2.01Z"/>
      <path class="st3" d="M183.2,176.53c.3.05.59.1.85.16,0,0,.01,0,.02,0,.53-.26,1.06-.51,1.62-.76,6.31-2.75,11.82-4.95,17.48-6.89h0c.52-.38,1.09-.77,1.67-1.16-8.46-1.86-18.18-2.34-21.41-2.87-8.39-1.38-17.09-2.81-25.61-2.25-3.68.24-7.33.86-10.91,2.01-1.08.35-2.13.73-3.16,1.15v31.73c6.49-6.3,13.59-11.42,21.76-15.62,4.57-2.35,12.45-6.35,17.69-5.5Z"/>
      <path class="st5" d="M187.45,180.66c-.77,1.66-2.94,3.49-5.16,4.92-1.41.91-2.84,1.66-3.94,2.09-16.5,6.54-20.58,23.34-26.12,39.13-2.26,6.46-4.78,12.75-8.49,18.09v-47.23c6.49-6.3,13.59-11.42,21.76-15.62,4.57-2.35,12.45-6.35,17.69-5.5.3.05.59.1.85.16,3.52.76,4.19,2.27,3.41,3.96Z"/>
      <path class="st5" d="M375.54,129.44c-5.78,2.32-12.1,3.67-19.02,3.74-26.05.3-49.02,4.64-72.88,15.55-14.85,6.79-28.91,15.1-43.48,22.43-9.08,4.56-34.12,6.4-39.06,4.99-4.17-1.19-2.12-4.01,2.07-7.1,6.3-4.65,17.46-9.9,19.62-11.14,12.35-7.04,23.27-16.36,34.09-25.67,1.09-.93,2.18-1.87,3.26-2.8h115.4Z"/>
      <path class="st6" d="M378.18,129.44h-2.64c-5.78,2.32-12.1,3.67-19.02,3.74-26.05.3-49.02,4.64-72.88,15.55-14.85,6.79-28.91,15.1-43.48,22.43-9.08,4.56-34.12,6.4-39.07,4.99-4.17-1.19-2.12-4.01,2.07-7.1h0s0,0,0,0c-5.66,1.94-11.17,4.14-17.48,6.89-.55.24-1.08.5-1.62.76,3.5.76,4.17,2.27,3.39,3.96-.77,1.66-2.94,3.49-5.16,4.92-1.41.91-2.84,1.66-3.94,2.09-16.49,6.54-20.58,23.34-26.12,39.13,6.44-3.26,10.42-10.44,16.69-13.92,12.39-6.89,26.32,1.55,39.27-4.2,17.42-7.74,29.58-12.89,49.17-10.86,5.04.53,10.16,1.12,15.3,1.45,8.78.57,17.59.37,26.02-2.33,13.11-4.2,22.68-14.59,33.96-21.97,9.15-5.98,19-10.03,29.69-12.25,11.36-2.35,23.18-3.41,33.29-9.63,12.28-6.78,22.13-16.28,33.42-23.65h-50.86Z"/>
      <path class="st8" d="M158.71,252.96c7.2.01,14.34.57,21.47,1.48,2.94-1.97,6.03-3.74,9.26-5.29,2.6-1.25,5.25-2.34,7.95-3.29,17.33-6.14,36.65-6.91,54.89-9.44.68-.56,1.19-.96,1.4-1.1,7.34-4.81,15.2-8.89,23.41-12,15.14-5.74,32.55-4.2,46.91-12.21,11.28-6.29,18.97-17.3,29.59-24.51,11.11-7.55,23.98-11.77,37.17-12.47,19.25-1.02,43.33,3.03,58.09-12.32,10.08-10.49,17.72-24.71,29.55-32.37h-49.35c-11.29,7.37-21.14,16.87-33.42,23.65-10.11,6.22-21.93,7.28-33.29,9.63-10.69,2.22-20.53,6.27-29.69,12.25-11.29,7.37-20.85,17.77-33.96,21.97-8.43,2.7-17.24,2.9-26.02,2.33-6.59,3.78-12.98,8.35-19.82,14.06-16.02,13.36-30.94,17.21-51.43,16.5-18.9,1.46-40.77,4.95-57.66,15.39v7.77c5.91-.32,12.05-.03,14.96-.02Z"/>
      <path class="st2" d="M143.74,252.98v55.66c3.73-7.02,6.32-14.95,9.28-21.75,5.79-13.28,15.22-24.5,27.15-32.46-7.13-.91-14.27-1.47-21.47-1.48-2.91,0-9.05-.3-14.96.02Z"/>
      <path class="st6" d="M297.29,314.97c-2.33,3.2-4.61,6.09-6.93,8.69-3.09,3.47-6.22,6.46-9.56,9.07-1.67,1.3-3.38,2.52-5.17,3.65-.89.57-1.8,1.11-2.73,1.64-5.58,3.17-11.87,5.7-19.38,7.97-1.79.54-3.57,1.1-5.35,1.69-8.88,2.92-17.59,6.42-25.76,10.92-3.27,1.8-6.46,3.76-9.54,5.91-5.67,3.96-10.86,8.51-16.01,13.11-3.87,3.45-7.72,6.91-11.74,10.16-1.34,1.08-2.71,2.14-4.09,3.17-5.83,4.31-12.08,8.04-18.62,11.13-3.93,1.86-7.96,3.48-12.08,4.87-1.32,1.64-2.63,3.3-3.93,4.93-.85,1.06-1.73,2.07-2.65,3.04v23.4c.64-.6,1.28-1.21,1.9-1.83,4.72-4.67,9.3-9.59,14.81-13.36,11.03-7.55,26.34-5.23,36.31-14.33,9.13-8.33,15.09-19.93,23.87-28.69,8.86-8.84,20.55-14.12,32.57-17.11,8.64-2.14,17.88-2.74,25.63-7.51,16.05-9.87,18.68-31.34,25.46-47.33,1.43-3.37,3.09-6.57,4.96-9.6-4.2,5.3-8,10.94-11.96,16.39Z"/>
      <path class="st6" d="M471.37,266.18c-2.12.8-4.27,1.54-6.43,2.23-3.27,1.03-6.58,1.94-9.92,2.71-1.67.38-3.35.73-5.04,1.05-6.74,1.26-13.59,1.95-20.44,2.01-1.71.02-3.43,0-5.14-.07-2.86-.11-5.7-.34-8.54-.65-2.84-.31-5.66-.7-8.49-1.12-5.65-.83-11.29-1.77-16.96-2.41h0c5.79,2.82,11.35,6.34,17.1,9.24,12.2,6.16,25.64,7.83,38.81,4.39.86-.22,1.71-.47,2.56-.73,5.86-1.83,11.99-4.48,16.91-8.2.79-.6,4.33-5.21,7.01-9.06-.54.25-1.03.46-1.44.61Z"/>
      <g>
        <path class="st8" d="M411.83,272.96h0c-1.78-.23-3.55-.49-5.32-.75,1.77.26,3.55.52,5.32.75Z"/>
        <path class="st8" d="M457.95,270.37c-2.03.51-4.08.99-6.13,1.4h0c2.06-.42,4.1-.88,6.13-1.4Z"/>
        <path class="st8" d="M464.94,268.41h0c-2.05.65-4.12,1.23-6.2,1.77,2.08-.55,4.15-1.12,6.2-1.77Z"/>
        <path class="st8" d="M395.38,270.56c.63.09,1.27.18,1.9.27-.63-.09-1.27-.18-1.9-.27Z"/>
        <path class="st8" d="M407.52,279.17c-5.75-2.9-11.31-6.42-17.1-9.24-2.05-.23-4.11-.43-6.17-.56-11.45-.75-24.32.31-36.38,3.66-15.83,11.58-27.52,30.68-34.93,49-6.47,16-14.09,33.42-30.55,41.29-13.19,6.3-28.29,5.03-41.82,10.07-14.25,5.31-24.7,17.64-31.28,31-2.88,5.85-6.36,14.52-5.84,24.11.2-.81.41-1.63.67-2.43,2.34-7.32,6.45-14.63,12.64-19.35,5.49-4.17,11.63-4.49,17.96-3.41,12.02-11.47,31.28-11.1,47.57-10.34,6.73.31,12.63-.76,17.91-2.85,20.9-26.05,26.38-66.84,62.43-77.19,20.04-5.76,41.71-5.43,60.73-14.62,8.29-4,15.79-9.17,23-14.76-13.17,3.45-26.61,1.77-38.81-4.39Z"/>
        <path class="st8" d="M400.4,271.29c1.92.29,3.84.58,5.76.87-1.92-.29-3.84-.58-5.76-.87Z"/>
      </g>
      <path class="st8" d="M461.48,413.99c-5.76.85-11.42,2.17-16.87,4.61-8.52,3.81-15.96,8.99-22.84,14.9-.15.34-.28.63-.4.83-4.86,9.14-10.45,18.61-17.14,27.01,13.66-8.27,26.86-16.54,42.75-21.58,11.72-3.72,24.22-7.05,35.21-12.8-5.43-6.85-12.77-11.14-20.72-12.97Z"/>
      <path class="st2" d="M498.5,478.41v5.79h-20.11c4.42-2.87,9.44-4.82,15.38-5.32,1.54-.13,3.12-.28,4.73-.47Z"/>
      <path class="st8" d="M498.5,478.41v-30.54c-1.81-1.52-3.53-3.17-5.16-4.97-6.64,5.58-13.75,10.49-20.84,15.48-8.93,6.26-18.86,14.47-29.13,18.35-5.17,1.95-9.87,4.54-14.34,7.47h49.35c4.42-2.87,9.44-4.82,15.38-5.32,1.54-.13,3.12-.28,4.73-.47Z"/>
      <path class="st0" d="M494.98,247.14c-4.32-5.03-25.23,6.33-28.59,6.88-4.1.67-8.2.67-12.61-.13-19.58-3.58-36.33-17.25-55.96-21.94-2.06-.49-4.1-.9-6.12-1.24-28.44-4.74-54.1,5.1-81.41,13.22-13.71,4.07-26.96,9.49-40.5,14.07-15,5.07-31.98,8.07-45.08,17.44-3.64,2.6-7.15,5.58-10.52,8.77-6.05,5.72-11.65,12.16-16.66,18.39-14.18,17.63-17.99,41.2-42.62,48.53-3.67,1.09-7.4,1.84-11.17,2.32v55.49c2.22-.59,4.41-1.25,6.58-1.99,4.12-1.38,8.16-3.01,12.08-4.87,6.55-3.09,12.79-6.83,18.62-11.13,1.39-1.03,2.75-2.09,4.09-3.17,4.03-3.25,7.88-6.72,11.74-10.16,5.16-4.59,10.34-9.15,16.01-13.11,3.08-2.15,6.27-4.11,9.54-5.91,8.18-4.5,16.88-8,25.76-10.92,1.78-.58,3.56-1.15,5.35-1.69,7.51-2.27,13.8-4.8,19.38-7.97.93-.53,1.84-1.08,2.73-1.64,1.79-1.13,3.5-2.34,5.17-3.65,3.33-2.61,6.47-5.59,9.56-9.07,2.31-2.61,4.6-5.49,6.93-8.69,3.96-5.45,7.76-11.1,11.96-16.4,0,0,0-.01,0-.01,3.1-3.93,6.43-7.67,10.21-10.99,16.66-14.7,43.26-19.62,64.78-18.21,2.06.14,4.12.33,6.17.56h0c5.67.64,11.31,1.58,16.96,2.41,2.82.42,5.65.81,8.49,1.12,2.84.31,5.68.55,8.54.65,1.71.06,3.42.08,5.14.07,6.85-.07,13.7-.76,20.44-2.01,1.69-.31,3.37-.66,5.04-1.05,3.34-.77,6.65-1.67,9.92-2.71,2.16-.69,4.31-1.43,6.43-2.23.41-.15.9-.36,1.44-.61,6.2-2.83,20.01-11.26,22.25-16.13.08-.16.14-.31.19-.47.22-.72.16-1.33-.27-1.83Z"/>
      <path class="st2" d="M495.06,249.44c-2.23,4.87-16.05,13.3-22.25,16.13-.54.25-1.03.46-1.44.61.41-.15.9-.36,1.44-.61-2.68,3.84-6.23,8.46-7.01,9.06-4.93,3.72-11.05,6.36-16.91,8.2-.85.27-1.7.51-2.56.73-7.21,5.59-14.71,10.76-23,14.76-19.02,9.18-40.69,8.86-60.73,14.62-38.45,11.04-42.12,56.7-66.82,82.19-9.08,9.37-20.48,14.08-33.55,14.25-14.5.18-31.98-12.92-45.5-2.64-6.2,4.72-10.3,12.03-12.64,19.35-2.58,8.07-1.89,16.45-5.9,24.28-1.63,3.19-3.68,6.02-6.06,8.56-11.79,12.54-31.67,17.6-48.39,19.5v5.79h58.06c.24-.36.48-.73.71-1.1.05-.07.09-.15.14-.22h0s.01-.04.02-.05c1.92-4.91,4.13-9.58,6.6-13.99,0,0,0,0,0,0,3.93-11.48,6.7-24.92,15.96-32.08,6.45-4.98,13.56-5.51,20.79-4.37,2.31-1.17,4.68-2.2,7.1-3.11,2.5-.93,5.05-1.75,7.65-2.45,17.59-4.74,37.1-6.3,50.65-20.14,8.37-8.55,13.78-22.3,20.95-32.07,25.42-34.63,63.37-64.51,109-53.37,12.77,3.12,26.31,8.76,39.46,4.22,8.41-2.9,13.68-9.34,17.65-16.82v-60.22c-1.15.3-2.31.64-3.44,1.01Z"/>
      <path class="st0" d="M192.13,458.91c-17.84,3.87-35.35-.06-48.39-11.05v30.54c16.72-1.9,36.6-6.96,48.39-19.5Z"/>
    </g>
  </g>
  <g>
    <path class="st0" d="M451.57,483.4l-8.9,7.79c-.29.26-.32.7-.07,1l25.02,28.58c1.97,2.26,3.32,4.66,4.01,7.13.69,2.5.92,4.96.67,7.34-.25,2.37-.95,4.63-2.09,6.73-1.14,2.11-2.58,3.92-4.23,5.37-2.62,1.96-5.07,3.19-7.29,3.65-2.21.46-4.37.4-6.41-.2-2.07-.6-4.05-1.66-5.89-3.13-1.87-1.5-3.71-3.27-5.45-5.25l-24.17-27.61c-.26-.29-.7-.32-1-.07l-8.8,7.7c-.29.26-.32.7-.07,1l23.91,27.31c3.96,4.52,7.82,8.05,11.47,10.5,3.69,2.47,7.35,3.95,10.88,4.41,3.55.46,7.17-.07,10.77-1.57,3.56-1.48,7.27-3.9,11.02-7.18.81-.71,1.83-1.8,3.1-3.33,1.27-1.53,2.39-3.28,3.33-5.22.95-1.96,1.58-4.14,1.86-6.46.14-1.17.11-2.33-.1-3.48l5.16,6.03c.12.14.3.23.49.25.19.01.37-.05.52-.17l8.9-7.79c.29-.26.32-.7.07-1l-45.74-52.24c-.26-.29-.7-.32-1-.07Z"/>
    <path class="st0" d="M485.51,451.43c-.64-.12-1.28.1-1.72.59l-3.61,4.07c-.93,1.04-1.99,2.23-3.03,3.68-1.22,1.71-2.38,3.41-3.24,5.39-.86,1.98-1.39,4.05-1.58,6.16-.11,1.26-.04,2.51.23,3.73l-4.6-4.08c-.29-.26-.74-.23-1,.06l-7.76,8.75c-.26.29-.23.74.06,1l51.97,46.05c.29.26.74.23,1-.06l7.84-8.85c.26-.29.23-.74-.06-1l-28.79-25.51c-2.24-1.99-3.88-4.2-4.88-6.57-1-2.39-1.49-4.85-1.46-7.31.03-2.48.55-4.94,1.56-7.33,1.03-2.45,1.38-3.41,3.07-5.35.3-.34-.54-2.59-.54-2.59-1.03-3.17-1.51-5.02-1.8-7.44l-.24-2.04c0-.06-.02-.11-.04-.16-.23-.61-.74-1.05-1.38-1.17Z"/>
    <path class="st0" d="M542.99,411.9c-.33-.22-.76-.13-.98.2l-4.14,6.23c-4.21-2.62-8.47-4.4-12.05-5.05-3.85-.69-7.51-.58-10.88.32-3.37.91-6.5,2.53-9.3,4.82-2.78,2.27-5.27,5.06-7.41,8.27-1.85,2.78-3.27,5.81-4.22,8.99-.95,3.19-1.34,6.41-1.15,9.56.19,3.18,1.07,6.3,2.6,9.28,1.53,2.99,3.88,5.72,6.99,8.1.16.12.35.17.55.14s.36-.14.47-.31l6.61-9.96c.21-.32.13-.74-.17-.96-1.5-1.09-2.57-2.38-3.18-3.84-.62-1.48-.93-3.07-.91-4.72.02-1.66.34-3.35.96-5.03,1.28-3.46,3.41-6.72,6.24-9.06,1.43-1.18,2.99-2.07,4.66-2.64,1.65-.57,3.41-.76,5.25-.57,1.82.19,3.68.91,5.52,2.13l1.41.93c.15.1.36.23.57.37-2.31,2-4.33,4.25-6.28,6.43l-.88.98c-2.09,2.32-3.69,4.75-5.23,7.09l-.7,1.07c-1.99,2.99-3.51,6.01-4.53,8.98-1.03,3-1.46,5.96-1.27,8.82.19,2.88,1.1,5.66,2.69,8.28,1.59,2.61,4,5,7.18,7.11,3.12,2.07,6.32,3.27,9.5,3.56,3.18.29,6.28-.09,9.22-1.14,2.92-1.04,5.66-2.61,8.15-4.68,5.51-4.57,9.18-10.57,10.84-17.35.78-3.19.8-6.46.05-9.74l6.27,4.16c.33.22.76.13.98-.2l6.61-9.96c.22-.33.13-.76-.2-.98l-4.17-2.77c-1.26-.84-2.9-1.96-4.93-3.36-2.04-1.4-4.37-2.98-7.01-4.73l-7.3-4.85,2.77-4.42c.1-.16,1.19-2.24,1.29-2.4.39-.64-.04-.18-.2-.29l-10.29-6.84ZM545.26,439.13c.79.61,1.47,1.67,2.04,3.14.58,1.52.92,3.31.99,5.3.08,2-.13,4.14-.62,6.33-.49,2.17-1.39,4.25-2.67,6.19-1.11,1.67-2.38,3.12-3.76,4.29-1.39,1.18-2.83,2.09-4.28,2.7-1.44.61-2.86.92-4.23.93-1.32,0-2.55-.36-3.66-1.1-1.41-.93-2.3-2.03-2.74-3.36-.46-1.37-.62-2.83-.5-4.36.13-1.54.53-3.09,1.17-4.58.66-1.54,1.4-2.92,2.18-4.09,1.03-1.55,2.25-3.07,3.63-4.54,1.41-1.49,2.77-2.88,4.06-4.12,1.3-1.25,2.47-2.34,3.5-3.26.73-.65,1.28-1.19,1.66-1.61l3.23,2.14Z"/>
    <path class="st0" d="M587.14,367.89c-.54.39-.83,1.04-.75,1.7.17,1.45.31,2.9.42,4.33.15,2.05.15,4.13.01,6.18-.14,2.04-.49,4.16-1.04,6.28-.55,2.11-1.38,4.35-2.49,6.65-2.13,4.44-5.09,7.64-8.79,9.5-3.24,1.63-8,1.38-12.55-.63,1.3-2.75,6.37-13.45,7.12-15.01,1.97-4.1,3.32-8.2,4.02-12.19.71-4.08,0-8.27-2.15-12.46-2.03-4.04-4.94-7-8.66-8.79-3.54-1.7-7.23-2.31-10.95-1.81-3.69.5-7.06,1.78-10.02,3.83-3.76,2.71-6.76,6.39-8.94,10.93-2.01,4.19-3.24,8.4-3.64,12.5-.41,4.11-.06,8.04,1.02,11.7,1.09,3.66,2.89,7.06,5.34,10.1,2.33,2.88,5.16,5.27,8.66,7.31l-.55,1.15c-.74,1.54-2.07,3.81-2.8,5.36-.1.21.24.02.16.23-.14.35-.34.68-.22,1.01.06.18.19.32.36.4l10.74,5.38c.35.17.47.41.64.06l2.56-4.63,1.44-2.84c4.44,1.85,9.05,2.97,12.43,3.01,3.9.06,7.56-.63,10.89-2.03,3.32-1.4,6.4-3.5,9.14-6.25,2.73-2.74,5.06-6.1,6.92-9.98,2.28-4.75,3.56-9.42,3.8-13.9.24-4.43.03-8.56-.61-12.27-.04-.22-.18-.42-.39-.52l-9.3-4.46c-.6-.29-1.29-.23-1.83.16ZM549.66,395.86c-2.13-1.36-3.8-2.94-4.99-4.72-1.31-1.95-2.17-4.09-2.55-6.34-.39-2.26-.37-4.65.06-7.08.43-2.45,1.22-4.89,2.35-7.24,1.22-2.53,2.88-4.56,4.96-6.03,1.98-1.4,4.19-1.48,6.78-.24,1.42.68,2.43,1.58,3.02,2.66.6,1.12.91,2.38.91,3.75,0,1.41-.26,2.92-.79,4.5-1.17,3.51-2.87,6.76-4.64,10.27-.79,1.57-4.03,8.26-5.09,10.47Z"/>
    <path class="st0" d="M344.21,568.8c-.32-2.93-.25-5.92.22-8.88.47-2.96,1.41-5.89,2.81-8.71,2.2-4.53,5.42-8.39,9.56-11.49,4.85-3.62,10.3-5.71,16.2-6.23,5.9-.51,11.63.67,17.03,3.52.18.1.4.11.59.03.4-.16.93-.5,1.64-1.02.65-.48,1.66-1.21,3.06-2.19,1.37-.97,3.34-2.41,6.01-4.4.18-.13.28-.35.28-.58,0-.23-.12-.44-.31-.57-1.62-1.1-3.44-2.15-5.39-3.1-3.85-1.97-7.86-3.37-11.91-4.15-4.05-.78-8.16-1.02-12.23-.69-4.07.33-8.09,1.22-11.96,2.66-3.87,1.44-7.56,3.47-10.99,6.02-5.61,4.19-10.14,9.61-13.46,16.13-1.92,3.97-3.27,8.1-4,12.28-.74,4.18-.88,8.39-.43,12.5.45,4.1,1.45,8.18,2.97,12.11,1.52,3.94,3.55,7.62,6.04,10.96,1.99,2.67,4.35,5.18,7.02,7.45,2.67,2.28,5.63,4.28,8.8,5.95,3.86,1.97,7.86,3.37,11.91,4.15,4.05.79,8.17,1.02,12.23.69,4.07-.33,8.11-1.24,12.01-2.7,3.9-1.47,7.65-3.54,11.15-6.15,5.62-4.19,10.07-9.56,13.24-15.96,2.64-5.43,4.18-11.08,4.57-16.8.39-5.71-.27-11.3-1.96-16.62-.07-.22-.24-.39-.46-.46-.22-.07-.45-.03-.63.1l-10.17,7.59c-.21.15-.31.41-.27.67.51,3.18.54,6.48.08,9.83-.46,3.34-1.48,6.58-3.03,9.62-2.41,4.69-5.56,8.51-9.35,11.34-4.92,3.67-10.41,5.8-16.31,6.31-5.9.52-11.63-.67-17.04-3.52-4.47-2.33-8.23-5.5-11.16-9.43-1.76-2.35-3.19-4.95-4.26-7.7-1.07-2.76-1.78-5.65-2.11-8.57Z"/>
  </g>
  <path class="st0" d="M283.02,594.76c-.27,0-.54-.01-.82-.04-141.03-13.73-249.75-131.06-252.87-272.94C25.92,167.18,148.93,38.63,303.53,35.22c154.61-3.45,283.15,119.59,286.56,274.19.1,4.59-3.54,8.39-8.13,8.49-.06,0-.13,0-.19,0-4.51,0-8.21-3.6-8.31-8.13-1.55-70.45-30.45-136.08-81.36-184.8-50.92-48.72-117.8-74.69-188.21-73.14C158.46,55.05,42.75,175.98,45.96,321.41c2.94,133.46,105.2,243.84,237.86,256.75,4.57.44,7.91,4.51,7.47,9.08-.42,4.3-4.04,7.51-8.27,7.51Z"/>
</svg>